<?xml version="1.0" encoding="UTF-8" standalone="no"?>
<svg
   xmlns:dc="http://purl.org/dc/elements/1.1/"
   xmlns:cc="http://creativecommons.org/ns#"
   xmlns:rdf="http://www.w3.org/1999/02/22-rdf-syntax-ns#"
   xmlns:svg="http://www.w3.org/2000/svg"
   xmlns="http://www.w3.org/2000/svg"
   width="73.441025mm"
   height="138.6053mm"
   viewBox="0 0 260.2241 491.12114"
   id="svg2"
   version="1.1">
  <defs
     id="defs4" />
  <metadata
     id="metadata7">
    <rdf:RDF>
      <cc:Work
         rdf:about="">
        <dc:format>image/svg+xml</dc:format>
        <dc:type
           rdf:resource="http://purl.org/dc/dcmitype/StillImage" />
        <dc:title></dc:title>
      </cc:Work>
    </rdf:RDF>
  </metadata>
  <g
     transform="translate(-267.42366,-217.6517)"
     id="layer1">
    <path
       style="fill:#54a636;fill-opacity:1;fill-rule:evenodd;stroke:#157007;stroke-width:4;stroke-linecap:butt;stroke-linejoin:miter;stroke-miterlimit:4;stroke-dasharray:none;stroke-opacity:1"
       d="m 348.57143,220.93363 c 0,0 2.35505,74.58119 -8.4699,109.58158 -5.95405,19.25126 -17.39516,34.24858 -30.18249,52.37912 -15.24364,27.74049 14.48585,93.69752 17.50928,103.90254 -4.30017,8.94233 -44.57118,-51.57752 -32.75292,-76.16205 -4.21451,8.49934 -8.24683,16.72739 -11.81826,24.58453 -14.28572,31.42857 -20,105.71428 -2.85714,140 17.14286,34.28571 43.13489,60.57573 84.62491,58.82397 48.33503,-2.04077 -8.6434,73.06817 -0.59918,72.72913 8.04422,-0.33904 41.85332,-74.08529 48.93421,-74.7699 67.18824,-6.49603 92.57896,-28.69567 105.95068,-69.38781 9.58914,-29.18121 7.77212,-61.63862 1.77423,-94.50741 -5.99789,-32.86878 -16.51192,-67.53636 -32.14982,-98.2383 -13.40324,-26.31463 -41.45251,-56.84524 -51.90199,-71.79933 10.76372,53.73629 10.6877,93.12854 10.6877,93.12854 0,0 -10.27288,-61.71239 -24.90926,-106.79788 -21.0544,-29.28894 -61.02771,-57.08813 -73.84005,-63.46673 z"
       id="path4136" />
    <path
       style="fill:none;fill-rule:evenodd;stroke:#157007;stroke-width:3;stroke-linecap:butt;stroke-linejoin:miter;stroke-miterlimit:4;stroke-dasharray:none;stroke-opacity:1"
       d="m 364.66507,705.87988 c 0,0 29.42753,-47.35482 37.37564,-73.74114 15.9371,-52.90838 25.21254,-94.49403 19.1929,-164.65486 -6.01964,-70.16083 -72.73098,-246.22469 -72.73098,-246.22469"
       id="path4710" />
    <path
       style="fill:none;fill-rule:evenodd;stroke:#157007;stroke-width:1px;stroke-linecap:butt;stroke-linejoin:miter;stroke-opacity:1"
       d="m 412.14224,597.79356 c 0,0 90.0049,2.23581 97.9848,-86.87312 l 6.06091,-67.68022"
       id="path4712" />
    <path
       style="fill:none;fill-rule:evenodd;stroke:#157007;stroke-width:1px;stroke-linecap:butt;stroke-linejoin:miter;stroke-opacity:1"
       d="m 418.20315,568.49913 c 0,0 -81.23573,34.61411 -121.2183,-75.76144 -6.84251,-18.88937 -14.14214,-58.58885 -14.14214,-58.58885"
       id="path4714" />
    <path
       style="fill:none;fill-rule:evenodd;stroke:#157007;stroke-width:1px;stroke-linecap:butt;stroke-linejoin:miter;stroke-opacity:1"
       d="m 421.23361,554.357 c 29.29443,2.0203 74.75129,-22.22336 74.75129,-163.64471"
       id="path4716" />
    <path
       style="fill:none;fill-rule:evenodd;stroke:#157007;stroke-width:1px;stroke-linecap:butt;stroke-linejoin:miter;stroke-opacity:1"
       d="m 406.08132,621.02707 c 0,0 -68.81356,2.76101 -95.96448,-36.3655 -27.36199,-39.43067 -37.37565,-73.74113 -38.3858,-112.12693"
       id="path4718" />
    <path
       style="fill:none;fill-rule:evenodd;stroke:#157007;stroke-width:1px;stroke-linecap:butt;stroke-linejoin:miter;stroke-opacity:1"
       d="m 424.26407,525.06257 c 0,0 -52.52793,35.35534 -96.97464,-39.39594"
       id="path4720" />
    <path
       style="fill:none;fill-rule:evenodd;stroke:#157007;stroke-width:1px;stroke-linecap:butt;stroke-linejoin:miter;stroke-opacity:1"
       d="m 424.26407,495.76815 c 0,0 55.55839,36.36549 44.44671,-154.55334"
       id="path4722" />
    <path
       style="fill:none;fill-rule:evenodd;stroke:#157007;stroke-width:1px;stroke-linecap:butt;stroke-linejoin:miter;stroke-opacity:1"
       d="M 421.23361,466.47373 C 373.75644,493.74785 326.27927,453.34174 323.24882,363.43817"
       id="path4724" />
    <path
       style="fill:none;fill-rule:evenodd;stroke:#157007;stroke-width:1px;stroke-linecap:butt;stroke-linejoin:miter;stroke-opacity:1"
       d="m 420.22346,443.24022 c 44.44671,24.24366 24.24366,-71.72083 24.24366,-71.72083"
       id="path4726" />
    <path
       style="fill:none;fill-rule:evenodd;stroke:#157007;stroke-width:1px;stroke-linecap:butt;stroke-linejoin:miter;stroke-opacity:1"
       d="m 414.16254,427.07778 c -34.34518,14.14213 -83.84266,-36.36549 -74.75128,-93.94419"
       id="path4728" />
    <path
       style="fill:none;fill-rule:evenodd;stroke:#157007;stroke-width:1px;stroke-linecap:butt;stroke-linejoin:miter;stroke-opacity:1"
       d="m 406.08132,394.7529 c 39.39595,3.03045 -5.05076,-133.34014 -5.05076,-133.34014"
       id="path4730" />
    <path
       style="fill:none;fill-rule:evenodd;stroke:#157007;stroke-width:1px;stroke-linecap:butt;stroke-linejoin:miter;stroke-opacity:1"
       d="m 403.05087,375.56 c -29.29443,6.06091 -57.5787,-73.74114 -57.5787,-73.74114"
       id="path4732" />
    <path
       style="fill:none;fill-rule:evenodd;stroke:#157007;stroke-width:1px;stroke-linecap:butt;stroke-linejoin:miter;stroke-opacity:1"
       d="m 392.94934,349.29603 c 19.1929,4.04061 -11.11168,-107.07617 -11.11168,-107.07617"
       id="path4734" />
    <path
       style="fill:none;fill-rule:evenodd;stroke:#157007;stroke-width:1px;stroke-linecap:butt;stroke-linejoin:miter;stroke-opacity:1"
       d="m 383.85797,323.03206 c -13.13198,3.03046 -36.36549,-53.53808 -36.36549,-53.53808"
       id="path4736" />
  </g>
</svg>
